<?xml version="1.0" encoding="utf-8"?>
<!-- Generator: Adobe Illustrator 19.2.1, SVG Export Plug-In . SVG Version: 6.00 Build 0)  -->
<svg version="1.1" id="Слой_1" xmlns="http://www.w3.org/2000/svg" xmlns:xlink="http://www.w3.org/1999/xlink" x="0px" y="0px"
	 viewBox="0 0 140.3 40.2" style="enable-background:new 0 0 140.3 40.2;" xml:space="preserve">
<style type="text/css">
	.st0{fill:#571112;}
	.st1{fill:#010202;}
</style>
<g>
	<path class="st0" d="M33.4,7.2c-7.3-7.3-19-7.3-26.3,0c-7.3,7.3-7.3,19,0,26.3c7.3,7.3,19,7.3,26.3,0C40.7,26.2,40.7,14.4,33.4,7.2
		z M8.3,7C8.3,7,8.3,7,8.3,7C8.3,7,8.3,7,8.3,7z M8.1,7.3C8,7.3,8,7.4,7.9,7.4C8,7.4,8,7.3,8.1,7.3z M7.7,32.9c-7-7-7-18.3,0-25.3
		c0.1-0.1,0.2-0.2,0.3-0.2c8.9-8.4,21.2,4.2,12.4,13c-7.8,7.8,0.8,19,9.3,15.1C22.8,39.8,13.6,38.9,7.7,32.9z"/>
	<path class="st0" d="M14.1,21.6c3.5-4.6,3.3-9.7-1.4-12.9c2.3,5-2.7,2.5-5.6,10.7c-2.1,9.2,6.8,16.3,13.2,17
		C13.6,35.6,10.5,26.2,14.1,21.6z M9.8,27.9c-1.7-3.4,0.5-6.4,0.5-6.4s-0.7,3.5,0.5,6.5c1.2,2.9,2.5,4.5,2.5,4.5S11.5,31.3,9.8,27.9
		z"/>
</g>
<g>
	<path class="st0" d="M46.5,18.2h-1.9V8.7h6.8v1.7h-4.9V18.2z"/>
	<path class="st0" d="M54.6,18.4c-0.6,0-1.1-0.1-1.4-0.3v-1.7c0.3,0.2,0.7,0.3,1.1,0.3c0.4,0,0.7-0.1,0.9-0.3c0.2-0.2,0.5-0.5,0.7-1
		l-3.6-6.6h2.1l2.4,4.6L59,8.7h2.1l-3.5,7.4C56.9,17.6,55.9,18.4,54.6,18.4z"/>
	<path class="st0" d="M66.3,18.2h-4.1V8.7h6.9v1.7h-4.9V12h2.1c1.1,0,2,0.3,2.6,0.9c0.6,0.6,1,1.3,1,2.2c0,0.9-0.3,1.7-1,2.2
		C68.3,17.9,67.4,18.2,66.3,18.2z M64.2,13.6v2.9h2c0.6,0,1-0.1,1.3-0.4c0.3-0.2,0.5-0.6,0.5-1.1s-0.2-0.8-0.5-1.1
		c-0.3-0.3-0.7-0.4-1.3-0.4H64.2z"/>
	<path class="st0" d="M73.5,18.2h-1.9V8.7h1.9v3.7l3.5-3.7h2.4l-4,4.3l4.7,5.1h-2.5l-4.1-4.4V18.2z"/>
	<path class="st0" d="M82.7,18.2h-1.6V8.7H83v6.2l4.6-6.2h1.7v9.5h-1.9V12L82.7,18.2z"/>
	<path class="st0" d="M93.3,18.2h-1.9V8.7h1.9v3.5h4.3V8.7h1.9v9.5h-1.9V14h-4.3V18.2z"/>
	<path class="st0" d="M106.4,18.4c-1.5,0-2.7-0.5-3.7-1.4c-1-0.9-1.5-2.1-1.5-3.5c0-1.4,0.5-2.6,1.4-3.5c1-0.9,2.2-1.4,3.7-1.4
		c0.9,0,1.8,0.2,2.5,0.6v2c-0.7-0.5-1.6-0.7-2.5-0.7c-0.9,0-1.6,0.3-2.3,0.9c-0.6,0.6-0.9,1.3-0.9,2.2c0,0.9,0.3,1.6,0.9,2.2
		c0.6,0.6,1.4,0.9,2.3,0.9c1,0,1.9-0.3,2.6-0.8v2C108.3,18.2,107.4,18.4,106.4,18.4z"/>
	<path class="st0" d="M112.7,18.2h-1.9V8.7h1.9v3.7l3.5-3.7h2.4l-4,4.3l4.7,5.1h-2.5l-4.1-4.4V18.2z"/>
	<path class="st0" d="M121.9,18.2h-1.6V8.7h1.9v6.2l4.6-6.2h1.7v9.5h-1.9V12L121.9,18.2z"/>
	<path class="st0" d="M132.2,18.2h-1.6V8.7h1.9v6.2l4.6-6.2h1.7v9.5h-1.9V12L132.2,18.2z M132.1,5.9h1.4c0,0.3,0.1,0.5,0.3,0.7
		c0.2,0.2,0.4,0.3,0.8,0.3c0.3,0,0.6-0.1,0.8-0.3c0.2-0.2,0.3-0.4,0.3-0.7h1.4c0,0.7-0.2,1.3-0.7,1.7c-0.5,0.4-1,0.6-1.8,0.6
		s-1.3-0.2-1.8-0.6C132.4,7.2,132.2,6.6,132.1,5.9z"/>
	<path class="st1" d="M46.5,31.3c-0.5,0-0.8-0.1-1.1-0.2v-0.9c0.3,0.1,0.6,0.2,1,0.2c0.4,0,0.8-0.2,1.1-0.6c0.1-0.2,0.3-0.4,0.4-0.5
		c0.1-0.1,0.2-0.3,0.4-0.7l-3.6-6.3h1l3,5.4l2.5-5.4h1l-3.3,7c-0.3,0.7-0.7,1.2-1.1,1.5C47.4,31.2,47,31.3,46.5,31.3z"/>
	<path class="st1" d="M54.7,31.2h-0.9v-8.8h0.9V26h5.2v-3.7h0.9v8.8h-0.9v-4.3h-5.2V31.2z"/>
	<path class="st1" d="M64.1,31.2h-0.8v-8.8h0.9v7.3l5.5-7.3h0.8v8.8h-0.9v-7.3L64.1,31.2z"/>
	<path class="st1" d="M77.1,31.2h-4.2v-8.8h3.8c0.8,0,1.4,0.2,1.9,0.6c0.5,0.4,0.7,0.9,0.7,1.6c0,0.5-0.1,0.8-0.3,1.2
		c-0.2,0.3-0.5,0.6-0.9,0.7c0.6,0.1,1.1,0.3,1.4,0.8c0.3,0.4,0.5,0.9,0.5,1.6c0,0.7-0.3,1.3-0.8,1.8C78.7,31,78,31.2,77.1,31.2z
		 M73.8,23.2v2.9h2.7c0.6,0,1-0.1,1.3-0.4c0.3-0.2,0.5-0.6,0.5-1.1c0-0.5-0.2-0.8-0.5-1.1c-0.3-0.3-0.7-0.4-1.3-0.4H73.8z
		 M73.8,26.9v3.4h3.1c0.7,0,1.2-0.2,1.5-0.5c0.4-0.3,0.5-0.7,0.5-1.3c0-0.5-0.2-1-0.5-1.3c-0.4-0.3-0.9-0.4-1.5-0.4H73.8z"/>
	<path class="st1" d="M88,31.2h-6.2v-8.8h6v0.8h-5.1V26h4.2v0.8h-4.2v3.5H88V31.2z"/>
	<path class="st1" d="M90.7,31.2h-0.9v-8.8h3.7c0.9,0,1.6,0.2,2.1,0.7s0.8,1,0.8,1.8c0,0.8-0.3,1.4-0.8,1.8s-1.2,0.7-2.1,0.7h-2.8
		V31.2z M90.7,23.2v3.2h2.7c0.6,0,1.1-0.1,1.4-0.4c0.3-0.3,0.5-0.7,0.5-1.2c0-0.5-0.2-0.9-0.5-1.2c-0.3-0.3-0.8-0.4-1.5-0.4H90.7z"
		/>
	<path class="st1" d="M102.4,31.3c-1.3,0-2.4-0.4-3.2-1.3c-0.9-0.9-1.3-1.9-1.3-3.3c0-1.3,0.4-2.4,1.3-3.3c0.9-0.9,1.9-1.3,3.2-1.3
		c1,0,1.8,0.2,2.5,0.7v1c-0.8-0.5-1.6-0.7-2.5-0.7c-1,0-1.9,0.4-2.6,1.1c-0.7,0.7-1,1.6-1,2.6c0,1.1,0.3,2,1,2.6
		c0.7,0.7,1.6,1,2.6,1c1,0,1.9-0.3,2.6-0.9v1C104.3,31.1,103.4,31.3,102.4,31.3z"/>
	<path class="st1" d="M107.7,31.2h-0.8v-8.8h0.9v7.3l5.5-7.3h0.8v8.8h-0.9v-7.3L107.7,31.2z"/>
	<path class="st1" d="M119.8,31.2h-0.9v-8h-3v-0.8h7v0.8h-3.1V31.2z"/>
	<path class="st1" d="M130.6,31.2h-6.2v-8.8h6v0.8h-5.1V26h4.2v0.8h-4.2v3.5h5.3V31.2z"/>
	<path class="st1" d="M135.6,31.2h-0.9v-8h-3v-0.8h7v0.8h-3.1V31.2z"/>
</g>
</svg>
